<?xml version="1.0" standalone="no"?>
<!DOCTYPE svg PUBLIC "-//W3C//DTD SVG 20010904//EN"
 "http://www.w3.org/TR/2001/REC-SVG-20010904/DTD/svg10.dtd">
<svg version="1.0" xmlns="http://www.w3.org/2000/svg"
 width="512.000000pt" height="512.000000pt" viewBox="0 0 512.000000 512.000000"
 preserveAspectRatio="xMidYMid meet">
<metadata>
Created by potrace 1.11, written by Peter Selinger 2001-2013
</metadata>
<g transform="translate(0.000000,512.000000) scale(0.100000,-0.100000)"
fill="#000000" stroke="none">
<path d="M0 2560 l0 -2560 2560 0 2560 0 0 2560 0 2560 -2560 0 -2560 0 0
-2560z m4563 710 c38 -6 100 -17 138 -26 l69 -16 0 -169 0 -170 -81 3 -80 3
-22 65 c-44 129 -110 180 -233 180 -242 0 -364 -236 -364 -705 1 -436 114
-649 345 -648 135 1 206 57 249 193 l24 75 81 3 81 3 -2 -177 -3 -178 -49 -12
c-27 -7 -103 -20 -168 -30 -145 -20 -390 -15 -483 10 -219 60 -358 210 -415
447 -45 189 -45 448 -1 621 74 288 275 482 549 528 68 11 286 11 365 0z
m-3267 -38 c264 -69 415 -211 486 -459 21 -70 23 -100 23 -278 0 -177 -3 -210
-23 -284 -71 -258 -208 -408 -451 -493 -114 -39 -226 -48 -608 -48 l-363 0 0
38 c0 35 3 39 43 52 80 28 77 0 77 703 0 684 1 670 -63 700 -19 9 -40 17 -46
17 -6 0 -11 18 -11 41 l0 41 428 -5 c395 -3 433 -5 508 -25z m1830 -5 c98 -33
155 -72 195 -135 41 -64 52 -114 47 -207 -8 -145 -89 -256 -247 -339 l-73 -38
65 -28 c93 -39 129 -63 186 -126 68 -74 96 -162 88 -273 -15 -223 -138 -349
-385 -397 -57 -11 -176 -14 -515 -14 l-442 0 1 37 c1 32 5 38 33 48 49 16 79
50 86 98 3 23 5 315 3 648 -3 591 -4 608 -23 629 -11 13 -38 31 -59 40 -35 16
-39 22 -40 55 l-1 36 500 -3 500 -3 81 -28z"/>
<path d="M873 3123 l-23 -4 0 -654 0 -653 40 -7 c50 -8 157 2 233 22 204 55
309 272 309 638 0 428 -147 639 -458 658 -43 3 -89 3 -101 0z"/>
<path d="M2587 3123 l-57 -4 2 -277 3 -277 130 2 c191 2 264 35 314 142 22 48
26 69 26 151 -1 107 -19 156 -75 204 -55 46 -193 70 -343 59z"/>
<path d="M2537 2423 c-4 -3 -7 -142 -7 -308 l0 -302 31 -7 c47 -9 156 -7 229
4 139 22 208 88 230 221 20 120 -2 234 -58 299 -45 54 -97 79 -185 90 -84 11
-231 13 -240 3z"/>
</g>
</svg>
